<?xml version="1.0" encoding="UTF-8" standalone="no"?>
<svg
   viewBox="0 0 400 400"
   fill="none"
   version="1.1"
   id="svg52"
   sodipodi:docname="logo-mark.svg"
   width="400"
   height="400"
   inkscape:version="1.2.2 (b0a8486541, 2022-12-01)"
   xmlns:inkscape="http://www.inkscape.org/namespaces/inkscape"
   xmlns:sodipodi="http://sodipodi.sourceforge.net/DTD/sodipodi-0.dtd"
   xmlns="http://www.w3.org/2000/svg"
   xmlns:svg="http://www.w3.org/2000/svg">
  <defs
     id="defs56">
    <inkscape:perspective
       sodipodi:type="inkscape:persp3d"
       inkscape:vp_x="0 : 200 : 1"
       inkscape:vp_y="0 : 1000 : 0"
       inkscape:vp_z="400 : 200 : 1"
       inkscape:persp3d-origin="200 : 133.33333 : 1"
       id="perspective4358" />
    <inkscape:path-effect
       effect="bspline"
       id="path-effect4170"
       is_visible="true"
       lpeversion="1"
       weight="33.333333"
       steps="2"
       helper_size="0"
       apply_no_weight="true"
       apply_with_weight="true"
       only_selected="false" />
  </defs>
  <sodipodi:namedview
     id="namedview54"
     pagecolor="#505050"
     bordercolor="#eeeeee"
     borderopacity="1"
     inkscape:showpageshadow="0"
     inkscape:pageopacity="0"
     inkscape:pagecheckerboard="0"
     inkscape:deskcolor="#505050"
     showgrid="false"
     inkscape:zoom="0.93880209"
     inkscape:cx="0.53259362"
     inkscape:cy="193.33148"
     inkscape:window-width="1712"
     inkscape:window-height="891"
     inkscape:window-x="0"
     inkscape:window-y="0"
     inkscape:window-maximized="1"
     inkscape:current-layer="svg52" />
  <rect
     style="opacity:1;fill:#0c0c12;fill-opacity:1;stroke-width:1.83481"
     id="rect4412"
     width="400"
     height="400"
     x="0"
     y="0"
     ry="1.280116" />
  <!-- Droplet Shape -->
  <!-- Inner Drop (Translucent) -->
  <!-- Bottom Line -->
  <g
     id="g1624"
     transform="matrix(9.6201591,0,0,9.6201591,-30.883818,-2.0234905)">
    <path
       d="m 24,6 c 0,0 -10,10 -10,20 0,5.5 4.5,10 10,10 5.5,0 10,-4.5 10,-10 C 34,16 24,6 24,6 Z"
       fill="none"
       stroke="#e07a3a"
       stroke-width="1.5"
       stroke-linejoin="round"
       id="path46" />
    <path
       d="m 24,20 c 0,0 -5,5 -5,9 0,2.8 2.2,5 5,5 2.8,0 5,-2.2 5,-5 0,-4 -5,-9 -5,-9 z"
       fill="#e07a3a"
       fill-opacity="0.5"
       id="path48" />
  </g>
</svg>
