<?xml version="1.0" encoding="UTF-8" standalone="no"?>
<svg
   viewBox="0 0 400 480"
   version="1.1"
   width="400"
   height="480"
   xmlns="http://www.w3.org/2000/svg">

  <!-- Transparent background — use on light surfaces -->

  <!-- Flame mark — all dark ink -->
  <g transform="matrix(9.6201591,0,0,9.6201591,-30.883818,-2.0234905)">
    <path
       d="m 24,6 c 0,0 -10,10 -10,20 0,5.5 4.5,10 10,10 5.5,0 10,-4.5 10,-10 C 34,16 24,6 24,6 Z"
       fill="none"
       stroke="#0c0c12"
       stroke-width="1.5"
       stroke-linejoin="round"/>
    <path
       d="m 24,20 c 0,0 -5,5 -5,9 0,2.8 2.2,5 5,5 2.8,0 5,-2.2 5,-5 0,-4 -5,-9 -5,-9 z"
       fill="#0c0c12"
       fill-opacity="0.5"/>
  </g>

  <!-- EMBER HORIZON -->
  <text
     x="200" y="385"
     font-family="'Arial Black', Impact, 'Helvetica Neue', Arial, sans-serif"
     font-size="34" font-weight="900"
     fill="#0c0c12"
     text-anchor="middle"
     letter-spacing="5">EMBER HORIZON</text>

  <!-- Decorative line left -->
  <line x1="30" y1="413" x2="122" y2="413" stroke="#0c0c12" stroke-width="1" opacity="0.5"/>

  <!-- STUDIOS -->
  <text
     x="200" y="418"
     font-family="Arial, 'Helvetica Neue', sans-serif"
     font-size="12" font-weight="400"
     fill="#0c0c12"
     text-anchor="middle"
     letter-spacing="9">STUDIOS</text>

  <!-- Decorative line right -->
  <line x1="278" y1="413" x2="370" y2="413" stroke="#0c0c12" stroke-width="1" opacity="0.5"/>

</svg>
