<?xml version="1.0" encoding="UTF-8" standalone="no"?>
<svg
   viewBox="0 0 400 480"
   version="1.1"
   width="400"
   height="480"
   id="svg18"
   sodipodi:docname="logo-reversed.svg"
   inkscape:version="1.2.2 (b0a8486541, 2022-12-01)"
   xmlns:inkscape="http://www.inkscape.org/namespaces/inkscape"
   xmlns:sodipodi="http://sodipodi.sourceforge.net/DTD/sodipodi-0.dtd"
   xmlns="http://www.w3.org/2000/svg"
   xmlns:svg="http://www.w3.org/2000/svg">
  <defs
     id="defs22" />
  <sodipodi:namedview
     id="namedview20"
     pagecolor="#505050"
     bordercolor="#eeeeee"
     borderopacity="1"
     inkscape:showpageshadow="0"
     inkscape:pageopacity="0"
     inkscape:pagecheckerboard="0"
     inkscape:deskcolor="#505050"
     showgrid="false"
     inkscape:zoom="1.55625"
     inkscape:cx="174.77912"
     inkscape:cy="240.64257"
     inkscape:window-width="1712"
     inkscape:window-height="891"
     inkscape:window-x="0"
     inkscape:window-y="0"
     inkscape:window-maximized="1"
     inkscape:current-layer="svg18" />
  <!-- Light background -->
  <rect
     width="400"
     height="480"
     x="0"
     y="0"
     fill="#f0ede6"
     id="rect2" />
  <!-- Flame mark — orange on light -->
  <g
     transform="matrix(9.6201591,0,0,9.6201591,-30.883818,-2.0234905)"
     id="g8">
    <path
       d="m 24,6 c 0,0 -10,10 -10,20 0,5.5 4.5,10 10,10 5.5,0 10,-4.5 10,-10 C 34,16 24,6 24,6 Z"
       fill="none"
       stroke="#e07a3a"
       stroke-width="1.5"
       stroke-linejoin="round"
       id="path4" />
    <path
       d="m 24,20 c 0,0 -5,5 -5,9 0,2.8 2.2,5 5,5 2.8,0 5,-2.2 5,-5 0,-4 -5,-9 -5,-9 z"
       fill="#e07a3a"
       fill-opacity="0.5"
       id="path6" />
  </g>
  <!-- EMBER HORIZON -->
  <g
     aria-label="EMBER HORIZON"
     id="text10"
     style="font-weight:900;font-size:34px;font-family:'Arial Black', Impact, 'Helvetica Neue', Arial, sans-serif;letter-spacing:5;text-anchor:middle;fill:#0c0c12">
    <path
       d="m 27.774414,385 v -23.3916 h 18.394531 v 3.78515 h -13.49707 v 5.87696 H 45.15625 v 3.78515 H 32.671875 v 6.15918 H 46.849609 V 385 Z"
       id="path859" />
    <path
       d="m 74.875977,385 v -14.17773 q 0,-0.48145 0,-0.9629 0.0166,-0.48144 0.166015,-4.13378 -1.178711,4.46582 -1.743164,6.22558 L 69.082031,385 h -3.486328 l -4.216797,-13.04883 -1.776367,-6.22558 q 0.199219,3.85156 0.199219,5.09668 V 385 h -4.34961 v -23.3916 h 6.557618 l 4.183593,13.08203 0.365235,1.26172 0.796875,3.13769 1.045898,-3.75195 4.299805,-13.72949 h 6.524414 V 385 Z"
       id="path861" />
    <path
       d="m 109.50977,378.32617 q 0,3.1875 -2.39063,4.93067 Q 104.72852,385 100.47852,385 H 88.774414 v -23.3916 h 10.708008 q 4.283208,0 6.474608,1.49414 2.20801,1.47754 2.20801,4.38281 0,1.99219 -1.11231,3.37012 -1.0957,1.36133 -3.35351,1.84277 2.83887,0.33203 4.31641,1.79297 1.49414,1.44434 1.49414,3.83496 z m -6.27539,-10.17676 q 0,-1.57714 -1.0127,-2.24121 -0.99609,-0.66406 -2.97168,-0.66406 h -5.578125 v 5.79395 h 5.611328 q 2.075197,0 3.004887,-0.71387 0.94629,-0.73047 0.94629,-2.17481 z m 1.36132,9.79493 q 0,-3.28711 -4.714841,-3.28711 h -6.208984 v 6.70703 h 6.391605 q 2.35742,0 3.43652,-0.84668 1.0957,-0.86328 1.0957,-2.57324 z"
       id="path863" />
    <path
       d="m 118.32813,385 v -23.3916 h 18.39453 v 3.78515 h -13.49707 v 5.87696 h 12.48437 v 3.78515 h -12.48437 v 6.15918 h 14.17773 V 385 Z"
       id="path865" />
    <path
       d="m 162.07617,385 -5.42871,-8.88184 h -5.74414 V 385 h -4.89746 v -23.3916 h 11.6875 q 4.18359,0 6.45801,1.80957 2.27441,1.79297 2.27441,5.16308 0,2.45704 -1.39453,4.25 -1.39453,1.77637 -3.76855,2.34082 L 167.58789,385 Z m -0.58105,-16.21973 q 0,-3.37011 -4.31641,-3.37011 h -6.27539 v 6.90625 h 6.4082 q 2.0586,0 3.1211,-0.92969 1.0625,-0.92969 1.0625,-2.60645 z"
       id="path867" />
    <path
       d="M 205.09668,385 V 374.97266 H 194.90332 V 385 h -4.89746 v -23.3916 h 4.89746 v 9.31347 h 10.19336 v -9.31347 h 4.89746 V 385 Z"
       id="path869" />
    <path
       d="m 242.30371,373.19629 q 0,3.65234 -1.44434,6.4248 -1.44433,2.77246 -4.13378,4.25 -2.68946,1.46094 -6.27539,1.46094 -5.51172,0 -8.64942,-3.2373 -3.12109,-3.25391 -3.12109,-8.89844 0,-5.62793 3.12109,-8.78223 3.12109,-3.15429 8.68262,-3.15429 5.56152,0 8.68262,3.1875 3.13769,3.1875 3.13769,8.74902 z m -4.99707,0 q 0,-3.78516 -1.79297,-5.92676 -1.79297,-2.1582 -5.03027,-2.1582 -3.28711,0 -5.08008,2.1416 -1.79297,2.125 -1.79297,5.94336 0,3.85156 1.82617,6.07617 1.84278,2.20801 5.01368,2.20801 3.2871,0 5.06347,-2.1582 1.79297,-2.15821 1.79297,-6.12598 z"
       id="path871" />
    <path
       d="m 267.07617,385 -5.42871,-8.88184 h -5.74414 V 385 h -4.89746 v -23.3916 h 11.6875 q 4.18359,0 6.45801,1.80957 2.27441,1.79297 2.27441,5.16308 0,2.45704 -1.39453,4.25 -1.39453,1.77637 -3.76855,2.34082 L 272.58789,385 Z m -0.58105,-16.21973 q 0,-3.37011 -4.31641,-3.37011 h -6.27539 v 6.90625 h 6.4082 q 2.0586,0 3.1211,-0.92969 1.0625,-0.92969 1.0625,-2.60645 z"
       id="path873" />
    <path
       d="m 280.55957,385 v -23.3916 h 4.89746 V 385 Z"
       id="path875" />
    <path
       d="m 312.52051,385 h -18.77637 v -3.46973 l 12.65039,-16.08691 h -11.38867 v -3.83496 h 16.83398 v 3.40332 l -12.65039,16.15332 h 13.33106 z"
       id="path877" />
    <path
       d="m 343.51855,373.19629 q 0,3.65234 -1.44433,6.4248 -1.44434,2.77246 -4.13379,4.25 -2.68945,1.46094 -6.27539,1.46094 -5.51172,0 -8.64942,-3.2373 -3.12109,-3.25391 -3.12109,-8.89844 0,-5.62793 3.12109,-8.78223 3.1211,-3.15429 8.68262,-3.15429 5.56153,0 8.68262,3.1875 3.13769,3.1875 3.13769,8.74902 z m -4.99707,0 q 0,-3.78516 -1.79296,-5.92676 -1.79297,-2.1582 -5.03028,-2.1582 -3.28711,0 -5.08008,2.1416 -1.79296,2.125 -1.79296,5.94336 0,3.85156 1.82617,6.07617 1.84277,2.20801 5.01367,2.20801 3.28711,0 5.06348,-2.1582 1.79296,-2.15821 1.79296,-6.12598 z"
       id="path879" />
    <path
       d="m 366.46484,385 -10.19336,-18.0127 q 0.29883,2.62305 0.29883,4.2168 V 385 h -4.34961 v -23.3916 h 5.59473 l 10.34277,18.16211 q -0.29883,-2.50684 -0.29883,-4.56543 V 361.6084 h 4.34961 V 385 Z"
       id="path881" />
  </g>
  <!-- Decorative line left -->
  <line
     x1="30"
     y1="413"
     x2="122"
     y2="413"
     stroke="#0c0c12"
     stroke-width="1"
     opacity="0.4"
     id="line12" />
  <!-- STUDIOS -->
  <g
     aria-label="STUDIOS"
     id="text14"
     style="font-size:12px;font-family:Arial, 'Helvetica Neue', sans-serif;letter-spacing:9;text-anchor:middle;fill:#0c0c12">
    <path
       d="m 153.78418,415.7207 q 0,1.14258 -0.89648,1.76953 -0.89063,0.62696 -2.51368,0.62696 -3.01757,0 -3.49804,-2.09766 l 1.08398,-0.2168 q 0.1875,0.74414 0.79688,1.09571 0.60937,0.3457 1.6582,0.3457 1.08398,0 1.66992,-0.36914 0.5918,-0.375 0.5918,-1.0957 0,-0.4043 -0.1875,-0.65625 -0.18164,-0.25196 -0.51563,-0.41602 -0.33398,-0.16406 -0.79687,-0.27539 -0.46289,-0.11133 -1.02539,-0.24023 -0.97852,-0.2168 -1.48828,-0.4336 -0.50391,-0.21679 -0.79688,-0.48047 -0.29297,-0.26953 -0.45117,-0.62695 -0.15234,-0.35742 -0.15234,-0.82031 0,-1.06055 0.80859,-1.63477 0.81445,-0.57422 2.32617,-0.57422 1.40625,0 2.15039,0.4336 0.74414,0.42773 1.04297,1.46484 l -1.10156,0.19336 q -0.18164,-0.65625 -0.69141,-0.94922 -0.50976,-0.29883 -1.41211,-0.29883 -0.99023,0 -1.51172,0.32813 -0.52148,0.32812 -0.52148,0.97851 0,0.38086 0.19922,0.63282 0.20508,0.24609 0.58594,0.42187 0.38085,0.16992 1.51757,0.42188 0.38086,0.0879 0.75586,0.18164 0.38086,0.0879 0.72657,0.21679 0.3457,0.12305 0.64453,0.29297 0.30468,0.16992 0.52734,0.41602 0.22266,0.24609 0.3457,0.58008 0.12891,0.33398 0.12891,0.78515 z"
       id="path884" />
    <path
       d="M 167.55371,410.6582 V 418 h -1.11328 v -7.3418 h -2.83594 v -0.91406 h 6.78516 v 0.91406 z"
       id="path886" />
    <path
       d="m 183.94824,418.11719 q -1.01367,0 -1.76953,-0.36914 -0.75586,-0.36914 -1.17187,-1.07227 -0.41602,-0.70312 -0.41602,-1.67578 v -5.25586 h 1.11914 v 5.16211 q 0,1.13086 0.57422,1.7168 0.57422,0.58593 1.6582,0.58593 1.11328,0 1.72852,-0.60351 0.62109,-0.60938 0.62109,-1.77539 v -5.08594 h 1.11328 v 5.15039 q 0,1.00195 -0.42773,1.72852 -0.42188,0.72656 -1.20117,1.11328 -0.77344,0.38086 -1.82813,0.38086 z"
       id="path888" />
    <path
       d="m 205.42285,413.78711 q 0,1.27734 -0.49805,2.23828 -0.49804,0.95508 -1.4121,1.46484 Q 202.59863,418 201.40332,418 h -3.08789 v -8.25586 h 2.73047 q 2.09765,0 3.23437,1.05469 1.14258,1.04883 1.14258,2.98828 z m -1.125,0 q 0,-1.53516 -0.84375,-2.33789 -0.83789,-0.8086 -2.43164,-0.8086 h -1.58789 v 6.4629 h 1.83984 q 0.90821,0 1.59375,-0.39844 0.69141,-0.39844 1.06055,-1.14844 0.36914,-0.75 0.36914,-1.76953 z"
       id="path890" />
    <path
       d="m 216.10449,418 v -8.25586 h 1.11914 V 418 Z"
       id="path892" />
    <path
       d="m 236.09082,413.83398 q 0,1.29493 -0.49805,2.26758 -0.49218,0.97266 -1.41797,1.49414 -0.92578,0.52149 -2.18554,0.52149 -1.27149,0 -2.19727,-0.51563 -0.91992,-0.51562 -1.40625,-1.48828 -0.48633,-0.97851 -0.48633,-2.2793 0,-1.98046 1.08399,-3.09375 1.08398,-1.11914 3.01758,-1.11914 1.25976,0 2.18554,0.50391 0.92578,0.49805 1.41211,1.45312 0.49219,0.95508 0.49219,2.25586 z m -1.14258,0 q 0,-1.54101 -0.77344,-2.41992 -0.76757,-0.8789 -2.17382,-0.8789 -1.41797,0 -2.19141,0.86718 -0.77344,0.86719 -0.77344,2.43164 0,1.55274 0.7793,2.4668 0.78516,0.9082 2.17383,0.9082 1.42969,0 2.1914,-0.8789 0.76758,-0.88477 0.76758,-2.4961 z"
       id="path894" />
    <path
       d="m 253.11816,415.7207 q 0,1.14258 -0.89648,1.76953 -0.89063,0.62696 -2.51367,0.62696 -3.01758,0 -3.49805,-2.09766 l 1.08399,-0.2168 q 0.1875,0.74414 0.79687,1.09571 0.60938,0.3457 1.6582,0.3457 1.08399,0 1.66993,-0.36914 0.59179,-0.375 0.59179,-1.0957 0,-0.4043 -0.1875,-0.65625 -0.18164,-0.25196 -0.51562,-0.41602 -0.33399,-0.16406 -0.79688,-0.27539 -0.46289,-0.11133 -1.02539,-0.24023 -0.97851,-0.2168 -1.48828,-0.4336 -0.50391,-0.21679 -0.79687,-0.48047 -0.29297,-0.26953 -0.45118,-0.62695 -0.15234,-0.35742 -0.15234,-0.82031 0,-1.06055 0.80859,-1.63477 0.81446,-0.57422 2.32618,-0.57422 1.40625,0 2.15039,0.4336 0.74414,0.42773 1.04296,1.46484 l -1.10156,0.19336 q -0.18164,-0.65625 -0.6914,-0.94922 -0.50977,-0.29883 -1.41211,-0.29883 -0.99024,0 -1.51172,0.32813 -0.52149,0.32812 -0.52149,0.97851 0,0.38086 0.19922,0.63282 0.20508,0.24609 0.58594,0.42187 0.38086,0.16992 1.51758,0.42188 0.38086,0.0879 0.75586,0.18164 0.38086,0.0879 0.72656,0.21679 0.3457,0.12305 0.64453,0.29297 0.30469,0.16992 0.52734,0.41602 0.22266,0.24609 0.34571,0.58008 0.1289,0.33398 0.1289,0.78515 z"
       id="path896" />
  </g>
  <!-- Decorative line right -->
  <line
     x1="278"
     y1="413"
     x2="370"
     y2="413"
     stroke="#0c0c12"
     stroke-width="1"
     opacity="0.4"
     id="line16" />
</svg>
